<svg xmlns="http://www.w3.org/2000/svg" width="48" height="48" viewBox="0 0 48 48"><path fill="#212121" d="M6.28 31.32c-.801-.63-1.655-1.233-2.238-2.083-1.228-1.499-2.173-3.235-2.82-5.059C.831 22.992.698 21.72.194 20.58c-.527-.828.09-1.733.997-1.997.404-.078 1.114-.458.257-.186-.768.564-.843-.512-.055-.58.538-.071.736-.512.552-.908-.577-.376 1.4-.79.405-1.352-1.036-1.118 1.45-1.333.836-.064-.147.976 1.737-.179 1.3.949.444.541 1.664.123 1.633.883.647.044.869.589 1.477.631.63.284 1.771.508 1.985 1.218-.625.495-2.071-1.022-2.141.347.189 2.022.141 4.106.881 6.031.35 1.166 1.198 2.084 1.965 2.992.733.889 1.726 1.516 2.738 2.043.888.419 1.845.696 2.813.871.392-.3 1.085-1.416 1.698-.946.029.529-1.215 1.105-.059 1.047.679-.205 1.15.525 1.71-.133.515.61 2.142-.39 1.775.858-.496.32-1.219.127-1.715.567-.819-.409-1.471.366-2.377.268-1.007.18-2.031.253-3.051.255-1.674-.132-3.384-.188-4.977-.771-.897-.261-1.773-.772-2.561-1.283m1.414.612c.876.379 1.733.778 2.693.899 1.523.212 3.096.538 4.625.24-.692-.312-1.407.122-2.097-.223-.827.178-1.714-.045-2.554-.155-.956-.426-1.987-.718-2.882-1.271-1.118-.408.578.524.88.599.699.397-.769-.203-.976-.368-.586-.328-.66-.26-.058.074.122.07.242.145.369.205m-1.667-1.178c.849.314-.004-.597-.393-.544-.172-.299-.659-.488-.316-.649-.617.214-.646-.814-.936-.667-.653-.206-.254-.936-1.031-1.384-.071-.472-.772-.882-.996-1.595-.099-.365-.792-1.412-.366-.437.363.939 1.001 1.742 1.532 2.545.412.764.9 1.563 1.651 2.04.253.243.497.615.855.691m3.74 1.579c.348.219 2.03.481.977.09-.177.037-1.954-.503-.977-.09m-3.843-3.12c.408.313 1.645.04.625-.187-.465-.248-1.511-.417-.798.149zm1.975 1.046c.998.282-.839-.631-.246-.104l.131.059zm1.728.999c.945.009-.853-.13 0 0m-1.72-1.527c.725.093-.862-.493-.159-.052zm2.519 1.548c.677-.405.454.947 1.148.114.685-.5-.592.618.253.089.611-.408 1.512.194 2.082.39.41-.02.808.354 1.228.126.808-.218-1.581-.323-.955-.709-.74.215-1.286-.257-1.65-.731-.83-.192-1.789-.616-2.203-1.35-.169-.276.244.039-.146-.412-.5-.445-.75-.95-1.085-1.49-.401-.214-.448-.844-.488-.021.003-.519-.484-.868-.603-.723-.002-.5.522-.249.155-.619-.079-.518-.339-1.058-.417-1.643-.121-.282-.017-.886-.414-.248-.145.675-.048-.829.177-.333.295-.506-.106-.446-.122-.376.192-.427.122-1.032-.05-.801.102-.452.162-1.665-.153-1.45.191-.473.362-2.165-.467-1.52-.336.005-.918.122-1.194.259.863.476-.087.172-.438.096-.046.44-.394.25-.828.254.694.086-.338.71-.736.468-.52.247.444.864.008 1.055.054.288-.792-.104-.726.56-.502-.211-.069.788.182.45.854.231.601.758.623 1.259-.139.292-.687-.686-.122-.64-.446-.724-.493-.262-.863.075-.086.024.945.479.298.703.569.088.585.586.701.901.342.356.272-.393.681.035-.259-.382-1.372-1.075-.476-.853-.005-.384-.162-.694.112-.686.272-.492-.285 1.214.328.588.17-.074.212-.493.517.04.443.436.16.751-.465.352.112.379.836.515.7 1.108.144.522.346.329.522.299.138.507.216.134.223-.107.632.135.484.509.682.77.435.197-.623-1.332.124-.46.786.71.295 1.006-.411.893.447-.036.591.604 1.149.581.509.242.854 1.173-.024.786-.305-.275-1.382-.613-.502-.091.813.377 1.459.602 2.243 1.074.561.401.804.86 1.016.95-.472.225-1.422-.18-.716-.304-.44-.08-.935-.303-.513.246.358.299 1.269.267 1.433.301-.138.305-.376.329.006.353-.426.228.137.263.176.392m-.871-2.459c-.259-.271-.326-.778-.046-.337.144.058.46.83.046.337m-1.66-2.735c-.309-.692.219-.378.068.113zM5.052 24.19c-.138-.227-.366-.893-.293-1.096.067.331.704 1.425.313.453-.432-.815.517.264.615.468.045.202-.267-.055-.055.419-.386-.54-.228.297-.58-.244m-1.434-1.205c-.327-.325-.564-.625.015-.202.223.009-.496-.681.054-.219.578.106.286.948-.069.421m.196-.498c-.951-.846 1.195.442.155.157zm2.724 1.583c-.411-.247-.109-1.737.031-.718.4-.129-.022.526.276.52-.046.414-.18.563-.307.198m-2.537-1.861c-.611-.843 1.775.852.391.214-.145-.038-.319-.051-.391-.214m1.94 1.029c-.058-.71.129.117 0 0m-1.847-1.35c.363-.078 1.504.638.456.204-.116-.129-.364-.071-.456-.204m3.118 1.553c.039-.726.217-.433.001.104zm-2.847-1.806c.148-.217-.393-.981.078-.274.203.162.589.271.248.339.535.472-.131.128-.326-.065m2.091.058c-.046-.28.157.352 0 0m.275-.447c-.189-.333.238-1.466.286-.763-.199.547-.057.854.081.119.257-.577-.055 1.141-.367.644m.782 8.1c.54.139.538-.084.049-.15-.263-.244-1.092-.504-.35-.03.05.124.205.121.301.18m-1.919-1.274c.298.222 1.121.629.424.085.235-.273-.45-.419-.223-.601-.578-.354-.456-.322-.051-.311-.695-.311.1-.287.063-.446-.268-.053-1.331-.472-.705.034-.636-.324-.151.121-.344.074-.65-.177.579.495-.103.328.373.295 1.004.757.158.313-.112.159.605.402.781.524m6.753 3.959c.285-.276.012.44.472-.068.005-.363-.014-.578-.529-.137-.142.08-.206.415.057.205m-4.668-2.997c.317.282 1.456.207.385.035-.159-.234-1.008-.178-.385-.035m5.481 3.271c.54-.572-.524.034 0 0M2.456 25.526c-.461-.657-.286-.953-.731-1.489-.084-.41-.762-1.342-.351-.355.377.577.489 1.47 1.082 1.844m11.135 6.692c.482-.311-.111-.263-.087.029zm.773.21c.618-.446-.374-.085-.13.084zM4.001 25.822c.453.101 1.81 1.115 1.009.07-.41-.121-.164-1.123-.582-.946.281.469.231.668-.358.373-.741-.362-.416.179-.271.328-.199.045.26.172.202.175m-2.063-1.629c.081-.335-.746-1.845-.391-.756.128.228.115.66.391.756m9.336 5.605c-.095-.243-.375-.006 0 0m4.829 2.214c.448-.091 1.469.228 1.634-.119-.544-.013-1.883-.384-1.946.088l.119.019zM2.144 22.267c.452-.178-.823-.367-.092-.034zM.733 20.688c-.082-.468-.071-1.29.711-1.012-1.043.207.722 1.296.499.436.438.021.858-.259.628.167.864-.095 1.463-.845 2.297-.74.65-.086 1.361-.151 2.061-.413.576-.041 1.13-.662.815-1.029-.785-.066-1.608.032-2.476.204-.962.2-1.836.58-2.806.743-.946.127.19.35-.081.4-.494.171.589.287-.064.467-.403-.077-.823-.215-.651-.64-.906.118-1.703.494-.987 1.416zm2.184-1.112c.212-.783 1.138.644.348.104-.094-.071-.25-.128-.348-.104m.43-.373c.028-.36.891.191.142.13zm.669-.306c.324-.389 1.834-.248.729-.038-.296-.223-.523.132-.729.038m2.531-.307c.204-.536.794-.215.095-.108.015.058-.021.277-.095.108m-4.514 2.842c.611-.374-.649-.325 0 0m17.665 10.587c.488.002 1.479-.152.417-.151-.167.026-.971.021-.417.151M2.882 21.338c.395-.027.618-.436-.076-.412-1.076-.111.95.369-.138.231-.147.097.205.207.214.181m-.553-3.121c.705-.24 1.669-.509 2.002.118-.339-.408-.137-.809.183-.213.452.603.679-.274.385-.477.335.417.717.614.225.026.535-.643-1.071.084-1.436.077-.177.08-1.814.419-1.359.469m.413-.791c.402-.303 1.391.181.756-.302-.062-.054-1.389.366-.756.302m1.466.061c.471.012-.203-.632.358-.34-.092-.301-.653-.357-.927-.477-.156.274.315.82.569.817m-.61-1.188c.758-.101-.193-.327-.153-.008zm-1.119-.875c-.534-.697 1.004.117.462-.613-.457-.363-.895.41-.462.613m6.853 3.691c.245-.434-1.011-.585-.165-.154.077.026.06.184.165.154"/><path fill="#212121" d="M20.891 16.121q-.132.518-.162 1.739 0 .24-.216.24-.217 0-.301-.209-.232-.564-.441-.788a1.06 1.06 0 0 0-.657-.317q-.44-.07-2.195-.07-.402 0-.526.085-.078.054-.077.232v3.502q0 .178.224.17a40 40 0 0 0 1.994-.093q.255-.031.344-.166t.174-.7q.054-.309.363-.24.263.054.224.24-.216 1.052-.139 2.736.008.201-.255.216-.216.023-.271-.232-.201-.966-.746-1.032t-1.774-.066q-.14 0-.139.1v3.478q0 .387.286.526.224.116.966.209.378.04.332.332-.047.255-.68.201-1.832-.147-3.022.015-.332.047-.332-.271 0-.2.332-.232.758-.085.758-1.33v-6.617q0-.51-.182-.785-.182-.274-.676-.499-.309-.14-.232-.379.039-.147.124-.162.078-.023.41.031.487.078 2.296.077 2.133 0 3.687-.093.518-.031.518.085a.4.4 0 0 1-.009.067M25.915 25.945q0 .309-.348.271-1.066-.1-2.644.031-.316.03-.39-.015-.073-.046-.073-.255 0-.186.421-.313.421-.128.421-.761v-6.995q0-.626-.182-.92t-.638-.456q-.24-.085-.24-.24 0-.233.348-.348.525-.17 1.09-.526.464-.278.587-.278.286 0 .286.394l-.031.773a36 36 0 0 0-.015 1.507l.031 6.903q0 .471.232.684t.796.282q.35.038.349.262M32.964 25.427q0 .162-.591.491t-.947.329q-.302 0-.533-.294t-.325-.294q-.07 0-.734.317a3.1 3.1 0 0 1-1.337.317q-.634 0-1.059-.371-.464-.41-.464-1.113 0-1.337 3.061-1.917.525-.1.533-.425l.015-.495q.046-1.268-1.121-1.268-.333 0-.63.595t-.854.642q-.634.061-.634-.533 0-.37.943-.866.99-.518 1.901-.518 1.569 0 1.554 1.492l-.031 3.185q-.007.502.425.502.085 0 .325-.039t.278-.039q.226.001.225.302m-2.38-1.762q.008-.194-.089-.255-.096-.062-.305-.023-1.863.332-1.863 1.214 0 .89.966.889.387 0 .796-.147.479-.17.479-.41zM38.731 24.507q0 .819-.63 1.302t-1.72.483q-.727 0-1.453-.155-.626-.14-.727-.255-.062-.108-.062-1.059 0-.41.186-.425.186-.023.317.201.58 1.013 1.871 1.013 1.09 0 1.09-.758a.72.72 0 0 0-.247-.557q-.27-.255-1.051-.595-1.129-.503-1.507-.881-.41-.402-.41-1.082 0-.835.642-1.299.596-.448 1.592-.448.626 0 1.144.1.556.1.58.247.062.433.255 1.252.022.1-.216.162-.255.054-.34-.085-.61-.997-1.546-.997-1.059 0-1.059.68 0 .379.286.603.255.194 1.198.603.99.425 1.345.765.461.445.462 1.185M47.697 25.899q0 .27-.363.286a23 23 0 0 0-1.415.077q-.434.085-.618-.108a16 16 0 0 1-2.072-2.752q-.07-.123-.178-.124-.132 0-.456.232-.363.201-.363.572 0 .263.015.758.016.495.247.649.162.108.75.17.363.046.363.271 0 .178-.058.22t-.305.019q-.773-.07-2.613.077-.464.039-.502-.116a.6.6 0 0 1-.015-.155q0-.24.472-.363.425-.109.425-.997V17.86q0-.634-.124-.881-.17-.316-.711-.495-.255-.085-.255-.24 0-.224.363-.348a5 5 0 0 0 1.105-.533q.425-.279.526-.278.317 0 .317.402l-.008.765q-.008.564-.008 1.515l.015 4.839q0 .201.108.201.116 0 .356-.201.641-.502 1.577-1.314.186-.194.186-.309 0-.208-.626-.294-.27-.031-.255-.301.023-.27.271-.232.556.078 1.623.085.743.008 1.476.008.24.007.24.286 0 .263-.379.286a2.9 2.9 0 0 0-1.121.271q-.735.333-1.569 1.167a.14.14 0 0 0-.062.116q0 .108.263.518.966 1.469 1.824 2.218.55.471 1.028.472.355 0 .441.05.085.05.085.266"/></svg>