<svg xmlns="http://www.w3.org/2000/svg" width="48" height="48" viewBox="0 0 48 48"><path fill="#ef4823" d="M40.311 8.7C36.352 2.998 27.6.647 21.934 4.243l-9.987 6.392a11.35 11.35 0 0 0-5.157 7.663c-.472 2.651.991 4.848 2.262 7.208-.872 1.307-2.516 3.287-2.77 4.813a12.22 12.22 0 0 0 2.07 9.225c3.995 5.702 11.914 7.741 17.579 4.146l9.913-6.724a11.35 11.35 0 0 0 5.157-7.663c.472-2.651.073-5.375-1.198-7.736a10.95 10.95 0 0 0 1.707-4.285c.617-3.27.725-5.931-1.199-8.582"/><path fill="#010101" d="M19.64 45.946a13.7 13.7 0 0 1-3.234-.393 14.44 14.44 0 0 1-8.433-5.744 12.72 12.72 0 0 1-2.147-9.572c.216-1.297 1.316-2.837 2.201-4.074q.26-.361.484-.684l-.304-.553c-1.14-2.065-2.319-4.2-1.872-6.709a11.8 11.8 0 0 1 5.367-7.974l9.984-6.39C27.434.205 36.49 2.388 40.689 8.432c1.957 2.698 1.94 5.418 1.277 8.93a11.4 11.4 0 0 1-1.627 4.23c1.198 2.357 1.596 5.112 1.119 7.792a11.8 11.8 0 0 1-5.36 7.969l-9.906 6.72-.012.008c-1.944 1.233-4.193 1.865-6.54 1.865m8.578-42.96c-2.167 0-4.269.527-6.034 1.647l-9.986 6.391a10.88 10.88 0 0 0-4.951 7.352c-.39 2.189.66 4.09 1.77 6.102q.223.402.443.809a.47.47 0 0 1-.022.476c-.192.288-.418.604-.657.939-.829 1.159-1.86 2.602-2.042 3.693-.556 3.09.17 6.325 1.991 8.88 3.953 5.642 11.553 7.446 16.948 4.027l9.907-6.72.014-.009a10.87 10.87 0 0 0 4.947-7.349c.458-2.57.049-5.211-1.15-7.438a.47.47 0 0 1 .022-.476 10.5 10.5 0 0 0 1.636-4.105l.002-.01c.634-3.359.655-5.781-1.119-8.223l-.006-.008c-2.636-3.798-7.307-5.978-11.713-5.978"/><path fill="#d6e5e5" d="M20.974 40.088a7.92 7.92 0 0 1-8.498-3.16c-1.162-1.598-1.598-3.595-1.271-5.557.073-.327.145-.617.218-.944l.256-.938.508.363c1.198.872 2.432 1.882 3.848 2.318l.363.109-.036.363a2.44 2.44 0 0 0 .399 1.489c.581.835 2.086 1.3 3.067 1.046.218-.073.436-.145.617-.254l10.19-6.182c.508-.327.567-1.206.676-1.787a2.26 2.26 0 0 0-.363-1.671 2.385 2.385 0 0 0-2.579-.944c-.218.073-.895.313-1.077.422l-3.813 2.433a6.8 6.8 0 0 1-2.034.872 7.92 7.92 0 0 1-8.498-3.16c-1.126-1.598-1.531-4.31-1.168-6.271.327-1.889 1.489-3.595 3.123-4.612l9.92-5.641c.617-.399 1.307-.69 2.034-.908a7.92 7.92 0 0 1 8.498 3.16c1.162 1.598 1.598 3.595 1.271 5.557a9 9 0 0 1-.254.944l-.034.107a.36.36 0 0 1-.552.185l-.105-.075a13.2 13.2 0 0 0-3.922-1.961l-.363-.109.036-.363a2.44 2.44 0 0 0-.399-1.489c-.581-.835-1.688-1.122-2.668-.868-.218.073-.436.145-.617.254l-9.861 6.279a2.06 2.06 0 0 0-.944 1.38 2.26 2.26 0 0 0 .363 1.671 2.385 2.385 0 0 0 2.579.944c.218-.073.436-.145.617-.254l3.813-2.433c.617-.399 1.307-.69 2.034-.908 3.232-.835 6.986-.553 8.875 2.171 1.162 1.598 1.929 4.257 1.602 6.218-.327 1.889-1.489 3.595-3.123 4.612L23.007 39.18c-.617.4-1.307.69-2.033.908"/><path fill="#010101" d="M18.981 40.806a8.4 8.4 0 0 1-2.921-.529 8.35 8.35 0 0 1-3.961-3.08c-1.224-1.685-1.704-3.781-1.35-5.901l.005-.024q.055-.246.11-.478c.036-.152.072-.305.108-.467l.005-.021.256-.938a.464.464 0 0 1 .715-.255l.508.363q.253.185.505.371c1.015.752 2.065 1.529 3.21 1.881l.36.108c.212.064.35.269.328.489l-.036.356c-.027.403.093.848.323 1.193.439.63 1.724 1.064 2.551.858.194-.065.376-.126.51-.207l4.798-3.358 5.384-2.818c.253-.168.348-.754.417-1.182q.025-.158.051-.298a1.8 1.8 0 0 0-.289-1.322 1.92 1.92 0 0 0-2.067-.763c-.344.115-.855.309-.965.372l-3.807 2.429a7.2 7.2 0 0 1-2.17.93 8.34 8.34 0 0 1-5.027-.261c-1.611-.601-2.602-1.841-3.584-3.258-1.282-1.82-1.976-4.535-1.622-6.446.345-1.995 1.592-3.837 3.334-4.921l.016-.009 9.909-5.635c.612-.394 1.313-.707 2.141-.955l.017-.005a8.35 8.35 0 0 1 5.031.26 8.35 8.35 0 0 1 3.961 3.08c1.224 1.685 1.704 3.781 1.35 5.901l-.005.024c-.066.295-.144.62-.267.99l-.031.099a.822.822 0 0 1-1.263.424l-.105-.075a12.8 12.8 0 0 0-3.789-1.895l-.36-.108a.464.464 0 0 1-.328-.489l.036-.356a1.96 1.96 0 0 0-.323-1.193c-.432-.621-1.298-.897-2.152-.681a2.7 2.7 0 0 0-.505.204l-5.253 3.042-4.603 3.233c-.404.26-.653.622-.738 1.075-.084.446.024.94.289 1.322a1.92 1.92 0 0 0 2.067.763 3 3 0 0 0 .505-.204l3.703-2.077c.612-.396 1.316-.711 2.15-.961.006-.002-.006.001 0 0 1.814-.469 3.61-.562 5.162-.26 1.824.354 3.284 1.256 4.223 2.606 1.308 1.801 2.119 4.207 1.786 6.21-.347 2.004-1.594 3.845-3.335 4.929l-10.694 6.683c-.608.394-1.312.709-2.146.959l-.017.005a8.4 8.4 0 0 1-2.111.271M11.66 31.46c-.309 1.871.114 3.716 1.191 5.196l.006.008a7.49 7.49 0 0 0 7.993 2.977c.745-.224 1.369-.503 1.907-.851l10.701-6.687c1.522-.947 2.611-2.554 2.913-4.299.292-1.75-.466-3.922-1.625-5.515l-.006-.009c-2.26-3.26-6.966-2.35-8.37-1.988-.745.224-1.368.502-1.907.851l-3.711 2.083-.011.007c-.225.135-.471.217-.709.296l-.03.009a2.84 2.84 0 0 1-3.075-1.128 2.7 2.7 0 0 1-.438-2.02 2.52 2.52 0 0 1 1.149-1.684l4.613-3.24 5.25-3.04.01-.006c.225-.135.471-.217.709-.296l.031-.009c1.233-.32 2.504.103 3.164 1.052.351.526.524 1.173.481 1.783a13.8 13.8 0 0 1 4.045 2.019c.1-.304.165-.567.232-.866.309-1.871-.114-3.716-1.191-5.196l-.006-.009a7.49 7.49 0 0 0-7.994-2.977c-.745.224-1.369.502-1.907.851l-.023.014-9.912 5.636c-1.517.947-2.603 2.552-2.904 4.294-.366 1.979.482 4.351 1.47 5.752 1.776 2.561 4.611 3.93 7.624 3.152a6.3 6.3 0 0 0 1.898-.812l3.816-2.435.011-.007c.273-.164 1.16-.461 1.169-.464l.03-.009a2.84 2.84 0 0 1 3.075 1.128c.409.59.568 1.326.438 2.02q-.023.13-.047.275c-.103.636-.23 1.427-.834 1.816l-.01.006-5.382 2.96-4.809 3.222a3.5 3.5 0 0 1-.71.297q-.015.005-.032.009c-1.201.311-2.899-.275-3.563-1.229a2.9 2.9 0 0 1-.481-1.783c-1.299-.4-2.413-1.225-3.49-2.022l-.46-.339-.078.286c-.036.161-.072.314-.108.467z"/></svg>