<svg xmlns="http://www.w3.org/2000/svg" width="48" height="48" viewBox="0 0 256 256"><path fill="#fff" stroke-miterlimit="10" d="M0 256V0h256v256z" font-family="none" font-size="none" font-weight="none" style="mix-blend-mode:normal" text-anchor="none"/><g fill="#004d40" fill-rule="evenodd" stroke-miterlimit="10" font-family="none" font-size="none" font-weight="none" style="mix-blend-mode:normal" text-anchor="none"><path d="M42.667 85.333v67.446c-7.174 1.354-10.939 1.888-16.651 1.888C8.906 154.65 0 147.013 0 132.352c0-14.128 9.445-23.296 24.085-23.296 2.272 0 4 .176 6.096.715V85.333zM30.18 120.917c-1.642-.533-2.992-.714-4.725-.714-7.083 0-11.179 4.314-11.179 11.882 0 7.366 3.915 11.43 11.088 11.43 1.552 0 2.811-.086 4.816-.358z"/><path d="M64 106.912v35.296c0 11.072-.827 17.195-3.264 21.781-2.272 4.41-5.264 7.195-11.445 10.267l-12.998-6.128c6.182-2.875 9.179-5.413 11.088-9.29 2-3.963 2.635-9.355 2.635-21.425v-30.512H64zM50.01 85.333H64v14.47H50.01zM73.248 111.339c6.059-2.944 11.856-4.24 18.176-4.24 7.045 0 11.675 1.936 13.723 5.722 1.146 2.118 1.52 4.875 1.52 10.779v28.837c-6.144.912-13.9 1.568-19.59 1.568-11.498 0-16.656-4.15-16.656-13.36 0-9.962 6.854-14.565 23.686-16.032v-3.12c0-2.576-1.254-3.51-4.715-3.51-5.067 0-10.773 1.484-16.128 4.332zm21.477 22.565c-9.077.912-12.026 2.395-12.026 6.085 0 2.763 1.696 4.059 5.44 4.059 2.048 0 3.92-.181 6.586-.64zM114.23 110.363c8.106-2.246 14.783-3.27 21.551-3.27 7.03 0 12.123 1.69 15.142 4.96 2.837 3.083 3.744 6.464 3.744 13.67v28.282h-13.728V126.3c0-5.536-1.787-7.595-6.678-7.595-1.872 0-3.568.187-6.325 1.04v34.267h-13.707zM160.944 160.032c4.901 2.592 9.808 3.787 14.997 3.787 9.179 0 13.088-2.523 13.088-11.606v-.277c-2.72 1.376-5.466 1.952-9.088 1.952-12.277 0-19.941-8.25-19.941-21.317 0-16.23 11.419-25.398 31.861-25.398 6.006 0 11.558.646 18.278 2.043l-4.795 10.293c-3.728-.736-.304-.112-3.115-.384v1.488l.182 6.027.09 7.792c.09 1.952.09 3.893.182 5.845v3.894c0 12.24-1.014 16.698-4.006 21.44-4.362 6.944-11.914 10.384-22.645 10.384-5.461 0-10.187-.827-15.088-2.78zm27.813-41.36h-1.466c-2.72-.09-5.91.645-8.096 2.043-3.35 1.946-5.083 5.477-5.083 10.474 0 7.13 3.461 11.21 9.643 11.21 1.909 0 3.46-.367 5.264-.916v-4.923c0-1.675-.091-3.53-.091-5.477l-.09-6.582-.091-4.725v-1.104zM232.352 106.912c14.683 0 23.648 8.853 23.648 23.19 0 14.698-9.344 23.909-24.235 23.909-14.698 0-23.765-8.848-23.765-23.094.027-14.79 9.37-24.005 24.352-24.005m-.304 35.765c5.637 0 8.965-4.47 8.965-12.234 0-7.675-3.237-12.235-8.87-12.235-5.828 0-9.162 4.47-9.162 12.235.006 7.765 3.355 12.234 9.067 12.234"/></g></svg>